<?xml version="1.0" encoding="UTF-8"?>
<!DOCTYPE svg PUBLIC "-//W3C//DTD SVG 1.1//EN" "http://www.w3.org/Graphics/SVG/1.1/DTD/svg11.dtd">
<svg xmlns="http://www.w3.org/2000/svg" version="1.1" width="248px" height="226px" style="shape-rendering:geometricPrecision; text-rendering:geometricPrecision; image-rendering:optimizeQuality; fill-rule:evenodd; clip-rule:evenodd" xmlns:xlink="http://www.w3.org/1999/xlink">
<g><path style="opacity:1" fill="#000000" d="M -0.5,-0.5 C 82.1667,-0.5 164.833,-0.5 247.5,-0.5C 247.5,74.8333 247.5,150.167 247.5,225.5C 164.833,225.5 82.1667,225.5 -0.5,225.5C -0.5,150.167 -0.5,74.8333 -0.5,-0.5 Z"/></g>
<g><path style="opacity:0.989" fill="#fefffe" d="M 110.5,5.5 C 159.572,2.32402 198.072,20.6574 226,60.5C 250.738,109.004 243.572,152.171 204.5,190C 165.813,220.333 123.146,227.333 76.5,211C 25.3839,188.876 2.21718,150.042 7,94.5C 18.1756,50.9898 45.3422,22.8232 88.5,10C 95.9315,8.28098 103.265,6.78098 110.5,5.5 Z"/></g>
<g><path style="opacity:1" fill="#000000" d="M 115.5,9.5 C 156.198,8.21562 189.698,22.8823 216,53.5C 243.333,92.8333 243.333,132.167 216,171.5C 184.987,206.73 146.154,220.563 99.5,213C 63.2314,205.706 36.3981,185.873 19,153.5C -0.17857,101.373 12.9881,59.54 58.5,28C 76.2067,17.4857 95.2067,11.3191 115.5,9.5 Z"/></g>
<g><path style="opacity:1" fill="#fefefe" d="M 81.5,48.5 C 118.821,52.1156 130.321,71.4489 116,106.5C 106.788,127.266 95.7883,146.932 83,165.5C 80.4112,163.789 77.9112,161.955 75.5,160C 89.5561,139.245 101.056,117.078 110,93.5C 116.087,76.5072 110.587,65.3405 93.5,60C 69.3026,55.6833 54.4692,65.5167 49,89.5C 45.5602,111.018 44.0602,132.684 44.5,154.5C 41.5,154.5 38.5,154.5 35.5,154.5C 35.1712,136.472 35.6712,118.472 37,100.5C 38.1701,86.9866 42.5034,74.6532 50,63.5C 58.6855,54.5562 69.1855,49.5562 81.5,48.5 Z"/></g>
<g><path style="opacity:1" fill="#fefefe" d="M 147.5,48.5 C 150.876,49.3876 153.543,51.221 155.5,54C 146.664,69.1629 140.164,85.3296 136,102.5C 132.271,116.644 129.771,130.977 128.5,145.5C 129.254,148.777 129.754,152.11 130,155.5C 131.491,159.748 134.491,161.415 139,160.5C 148.279,159.352 157.113,156.685 165.5,152.5C 167.291,154.664 168.624,157.164 169.5,160C 169.18,161.653 168.18,162.653 166.5,163C 155.713,168.199 144.38,170.532 132.5,170C 127.09,168.257 123.256,164.757 121,159.5C 118.584,142.993 119.584,126.66 124,110.5C 128.245,88.3652 136.079,67.6985 147.5,48.5 Z"/></g>
<g><path style="opacity:1" fill="#fefffe" d="M 193.5,85.5 C 194.496,85.4142 195.329,85.7476 196,86.5C 196.392,89.1879 196.892,91.8546 197.5,94.5C 197.167,95.1667 196.833,95.8333 196.5,96.5C 184.672,98.4561 173.338,101.956 162.5,107C 154.185,113.448 152.185,121.281 156.5,130.5C 158.952,133.059 161.952,134.559 165.5,135C 177.668,135.555 189.668,134.389 201.5,131.5C 202.875,135.078 203.375,138.744 203,142.5C 188.674,146.202 174.174,147.036 159.5,145C 145.795,139.427 140.628,129.26 144,114.5C 147.807,104.026 154.974,96.8592 165.5,93C 174.873,90.1589 184.206,87.6589 193.5,85.5 Z"/></g>
<g><path style="opacity:1" fill="#fefffe" d="M 65.5,91.5 C 80.1154,90.1435 91.7821,95.3102 100.5,107C 98.3333,109.167 96.1667,111.333 94,113.5C 87.6917,105.43 79.5251,101.263 69.5,101C 65.8878,102.139 62.5544,103.806 59.5,106C 58.5,106.667 57.5,106.667 56.5,106C 54.3391,103.851 53.1724,101.351 53,98.5C 57.0186,95.7447 61.1853,93.4113 65.5,91.5 Z"/></g>
</svg>
